<?xml version="1.0" encoding="utf-8"?>
<!-- Generator: Adobe Illustrator 25.4.1, SVG Export Plug-In . SVG Version: 6.00 Build 0)  -->
<svg version="1.1" id="Layer_1" xmlns="http://www.w3.org/2000/svg" xmlns:xlink="http://www.w3.org/1999/xlink" x="0px" y="0px"
	 viewBox="0 0 37.59 35.12" style="enable-background:new 0 0 37.59 35.12;" xml:space="preserve">
<style type="text/css">
	.st0{fill:#FFFFFF;}
	.st1{fill:#292759;}
	.st2{fill:#DE4C18;}
	.st3{fill:#91B637;}
	.st4{fill-rule:evenodd;clip-rule:evenodd;fill:#488FCD;}
	.st5{fill-rule:evenodd;clip-rule:evenodd;fill:#2F2482;}
	.st6{fill-rule:evenodd;clip-rule:evenodd;fill:#FFFFFF;}
	.st7{fill-rule:evenodd;clip-rule:evenodd;fill:#4997D7;}
	.st8{fill-rule:evenodd;clip-rule:evenodd;fill:#0D124A;}
	.st9{fill-rule:evenodd;clip-rule:evenodd;fill:#00174E;}
	.st10{fill-rule:evenodd;clip-rule:evenodd;fill:#272D39;}
</style>
<g>
	<path class="st4" d="M10.42,15.08c-0.14,0-0.25,0.11-0.25,0.25c0,0,0,0,0,0.01c0,0.14,0.11,0.25,0.25,0.25
		c0.14,0,0.25-0.11,0.26-0.24c0,0,0,0,0-0.01C10.68,15.2,10.56,15.08,10.42,15.08L10.42,15.08"/>
	<path class="st7" d="M32.37,20.6c0.22-1.22,0.21-2.53,0.47-3.69c1-4.37,2.75-3.13,2.75-9.8c-8.62,0-6.08,0.55-8.84-1.59
		C17.31-1.78,2.87,3.84,2.03,17.03C0.92,34.49,28.83,39.95,32.37,20.6"/>
	<path class="st6" d="M24.29,20.53c-9.63,2-6.04-11.56-19.04-6.78c1.22,1.41,2.62,1.99,3.2,4.45s0.61,4.29,1.95,6.08
		c1.96,2.67,6.56,5.61,11.31,3.42c4.23-1.95,2.43-5.13,4.84-6.69c0.88-0.48,1.68-1.09,2.37-1.82c1.66-1.82,5.36-6.96,5.2-10.62
		L31.95,8.6c-0.76,4.39-3.04,9.94-5.92,10.99c0.27-3.81-0.08-7.97-1.72-11h-2.43c1.75,3.38,3.51,6.86,2.43,11.88"/>
	<path class="st6" d="M27.31,17.12c1.26-1.82,2.72-5.66,2.2-8.45l-2.18-0.05c0,1.33,0.35,2.61,0.36,4.06S27.34,15.68,27.31,17.12"/>
	<path class="st7" d="M10.42,14.46c-0.49,0-0.88,0.4-0.88,0.89c0,0.49,0.4,0.88,0.89,0.88c0.48,0,0.88-0.4,0.88-0.88
		C11.31,14.85,10.92,14.46,10.42,14.46C10.43,14.46,10.42,14.46,10.42,14.46"/>
	<path class="st7" d="M10.42,14.88c-0.25,0-0.46,0.2-0.46,0.46s0.2,0.46,0.46,0.46c0.25,0,0.46-0.2,0.46-0.46
		C10.88,15.08,10.67,14.88,10.42,14.88"/>
	<path class="st6" d="M10.42,15.21c-0.07,0-0.13,0.06-0.13,0.13s0.06,0.13,0.13,0.13c0.07,0,0.13-0.06,0.13-0.13
		S10.49,15.21,10.42,15.21"/>
</g>
</svg>
